<svg width="24" height="24" viewBox="0 0 24 24" fill="none" xmlns="http://www.w3.org/2000/svg">
<path fill-rule="evenodd" clip-rule="evenodd" d="M6.42505 3.53222C4.9492 3.84977 3.8253 4.99102 3.5271 6.47507C3.45565 6.83062 3.4485 7.46402 3.4626 12.1751C3.4773 17.0968 3.48485 17.4965 3.568 17.7751C3.8861 18.8406 4.621 19.7199 5.5736 20.1747C6.3157 20.5291 6.19235 20.518 9.60805 20.5371C12.2684 20.552 12.7372 20.5436 13.0279 20.4762C13.7567 20.3072 13.7104 20.3471 17.0287 17.0288C20.347 13.7105 20.3071 13.7568 20.4762 13.0279C20.5436 12.7373 20.5519 12.2685 20.5371 9.60807C20.5179 6.18992 20.5288 6.30967 20.173 5.57507C19.7043 4.60712 18.8443 3.88727 17.775 3.56802C17.4958 3.48462 17.1041 3.47767 12.125 3.46767C7.5198 3.45842 6.72635 3.46737 6.42505 3.53222ZM6.68145 5.00557C6.57495 5.03057 6.3325 5.13267 6.1427 5.23242C5.56855 5.53412 5.13335 6.10547 4.999 6.73397C4.96495 6.89312 4.95215 8.73467 4.96125 12.1539L4.97505 17.3327L5.18745 17.7613C5.5156 18.4235 6.05185 18.8494 6.74 18.9943C6.914 19.0309 7.8355 19.0501 9.4245 19.0501H11.844L11.8631 16.9876C11.8842 14.7091 11.8877 14.6808 12.2273 13.9696C12.5808 13.2293 13.2308 12.58 13.9736 12.2254C14.6803 11.888 14.7109 11.8843 16.9875 11.8632L19.05 11.844L19.0494 9.38457C19.0488 6.68897 19.0465 6.66382 18.7477 6.10337C18.4676 5.57777 17.8898 5.14037 17.2944 5.00312C17.0147 4.93862 6.95655 4.94097 6.68145 5.00557ZM15.0814 13.4056C14.4922 13.544 13.8383 14.0731 13.5788 14.6216C13.3662 15.0711 13.347 15.2773 13.3614 16.9628L13.375 18.5505L15.9748 15.9503L18.5747 13.3501L16.9248 13.3551C16.0174 13.3579 15.1879 13.3806 15.0814 13.4056Z" fill="#A1A1A1"/>
</svg>
